<svg width="28" height="379" viewBox="0 0 28 379" fill="none" xmlns="http://www.w3.org/2000/svg">
<path d="M26.299 11.3087C26.2984 11.3082 26.2978 11.3076 26.2972 11.307L15.6913 0.701416C15.2392 0.249146 14.6382 0 13.9988 0C13.3595 0 12.7585 0.248947 12.3062 0.701218L1.70581 11.3014C1.70224 11.305 1.69867 11.3087 1.6951 11.3123C0.76675 12.246 0.768337 13.7609 1.69966 14.6922C2.12515 15.1179 2.68711 15.3645 3.28796 15.3903C3.31236 15.3927 3.33696 15.3939 3.36175 15.3939H3.78447V23.1989C3.78447 24.7434 5.0411 26 6.58596 26H10.7353C11.1559 26 11.4971 25.659 11.4971 25.2383V19.1191C11.4971 18.4144 12.0703 17.8411 12.7751 17.8411H15.2225C15.9273 17.8411 16.5006 18.4144 16.5006 19.1191V25.2383C16.5006 25.659 16.8416 26 17.2623 26H21.4117C22.9566 26 24.2132 24.7434 24.2132 23.1989V15.3939H24.6052C25.2443 15.3939 25.8453 15.1449 26.2978 14.6926C27.2301 13.7597 27.2305 12.2422 26.299 11.3087Z" fill="white"/>
<path d="M14.9695 378.977H13.3378C12.018 378.977 10.9443 377.903 10.9443 376.584V376.032C10.3832 375.852 9.83804 375.626 9.31433 375.355L8.92312 375.746C7.97559 376.695 6.45779 376.667 5.53778 375.746L4.38449 374.593C3.46286 373.672 3.43635 372.155 4.3848 371.207L4.77571 370.816C4.50469 370.293 4.27846 369.748 4.09915 369.186H3.54716C2.22746 369.186 1.15369 368.113 1.15369 366.793V365.161C1.15369 363.841 2.22746 362.768 3.54721 362.768H4.0992C4.27851 362.207 4.50474 361.661 4.77576 361.138L4.38454 360.747C3.43666 359.8 3.46281 358.282 4.38485 357.361L5.53824 356.208C6.46038 355.285 7.97782 355.261 8.92352 356.208L9.31439 356.599C9.83809 356.328 10.3832 356.102 10.9443 355.923V355.371C10.9443 354.051 12.018 352.977 13.3378 352.977H14.9696C16.2893 352.977 17.3631 354.051 17.3631 355.371V355.923C17.9241 356.102 18.4693 356.328 18.993 356.599L19.3842 356.208C20.3317 355.259 21.8495 355.287 22.7695 356.208L23.9228 357.362C24.8445 358.282 24.871 359.799 23.9225 360.747L23.5316 361.138C23.8026 361.661 24.0289 362.206 24.2082 362.768H24.7602C26.0799 362.768 27.1537 363.841 27.1537 365.161V366.793C27.1537 368.113 26.0799 369.186 24.7602 369.186H24.2082C24.0289 369.748 23.8026 370.293 23.5316 370.816L23.9228 371.208C24.8707 372.154 24.8446 373.672 23.9225 374.593L22.7691 375.746C21.847 376.67 20.3295 376.693 19.3839 375.746L18.993 375.355C18.4693 375.626 17.9241 375.852 17.3631 376.032V376.584C17.3631 377.903 16.2893 378.977 14.9695 378.977ZM9.569 373.755C10.2965 374.185 11.0796 374.511 11.8964 374.721C12.2327 374.808 12.4677 375.111 12.4677 375.459V376.584C12.4677 377.063 12.8581 377.454 13.3378 377.454H14.9696C15.4493 377.454 15.8397 377.063 15.8397 376.584V375.459C15.8397 375.111 16.0747 374.808 16.4111 374.721C17.2278 374.511 18.0109 374.185 18.7384 373.755C19.0378 373.578 19.4189 373.626 19.6648 373.872L20.4615 374.669C20.805 375.013 21.3565 375.005 21.6916 374.669L22.8457 373.515C23.18 373.181 23.1911 372.63 22.846 372.285L22.049 371.488C21.8031 371.242 21.755 370.861 21.932 370.562C22.3622 369.834 22.6872 369.051 22.898 368.234C22.9849 367.898 23.2882 367.663 23.6356 367.663H24.7602C25.2399 367.663 25.6303 367.273 25.6303 366.793V365.161C25.6303 364.681 25.2399 364.291 24.7602 364.291H23.6356C23.2882 364.291 22.9849 364.056 22.898 363.72C22.6872 362.903 22.3622 362.12 21.932 361.392C21.755 361.093 21.8031 360.712 22.049 360.466L22.8457 359.669C23.1901 359.325 23.1811 358.774 22.846 358.439L21.692 357.285C21.3575 356.95 20.8058 356.94 20.4618 357.285L19.6649 358.082C19.419 358.328 19.0377 358.376 18.7385 358.199C18.0109 357.769 17.2279 357.444 16.4111 357.233C16.0747 357.146 15.8397 356.843 15.8397 356.495V355.371C15.8397 354.891 15.4494 354.5 14.9696 354.5H13.3379C12.8582 354.5 12.4678 354.891 12.4678 355.371V356.495C12.4678 356.843 12.2328 357.146 11.8964 357.233C11.0796 357.444 10.2966 357.769 9.56905 358.199C9.26965 358.376 8.88853 358.328 8.64265 358.082L7.846 357.285C7.50251 356.941 6.95087 356.949 6.61587 357.285L5.46176 358.439C5.12752 358.773 5.11635 359.324 5.46146 359.669L6.25847 360.466C6.50435 360.712 6.5525 361.093 6.37552 361.392C5.94525 362.12 5.62025 362.903 5.40946 363.72C5.32262 364.056 5.01926 364.291 4.67191 364.291H3.54721C3.06748 364.291 2.67712 364.681 2.67712 365.161V366.793C2.67712 367.273 3.06748 367.663 3.54721 367.663H4.67186C5.01926 367.663 5.32257 367.898 5.40941 368.234C5.6202 369.051 5.94525 369.834 6.37547 370.562C6.55244 370.861 6.5043 371.242 6.25842 371.488L5.46171 372.285C5.11732 372.629 5.1263 373.18 5.46141 373.515L6.61541 374.669C6.94991 375.004 7.5016 375.014 7.84559 374.669L8.64255 373.872C8.82374 373.691 9.20069 373.537 9.569 373.755Z" fill="white"/>
<path d="M14.1536 371.634C11.0343 371.634 8.49658 369.096 8.49658 365.977C8.49658 362.858 11.0343 360.32 14.1536 360.32C17.273 360.32 19.8106 362.858 19.8106 365.977C19.8106 369.096 17.273 371.634 14.1536 371.634ZM14.1536 361.843C11.8743 361.843 10.02 363.698 10.02 365.977C10.02 368.256 11.8743 370.111 14.1536 370.111C16.4329 370.111 18.2872 368.256 18.2872 365.977C18.2872 363.698 16.4329 361.843 14.1536 361.843Z" fill="white"/>
<path d="M24.3354 265.986H3.97195C2.43573 265.986 1.18591 267.236 1.18591 268.772V282.145C1.18591 283.681 2.43573 284.931 3.97195 284.931H10.5325C10.6126 284.931 10.6887 284.97 10.7363 285.034L13.1299 288.279C13.3698 288.604 13.7391 288.792 14.1432 288.794H14.1493C14.5511 288.794 14.9197 288.61 15.1613 288.288L17.6093 285.032C17.6568 284.969 17.7326 284.931 17.8117 284.931H24.3354C25.8716 284.931 27.1214 283.681 27.1214 282.145V268.772C27.1214 267.236 25.8716 265.986 24.3354 265.986ZM25.6017 282.145C25.6017 282.265 25.5847 282.38 25.5536 282.49L17.7473 275.647L25.6017 269.129V282.145ZM24.3354 267.506C24.567 267.506 24.7842 267.568 24.9711 267.678L14.9645 275.982C14.4959 276.371 13.8157 276.371 13.3471 275.982L3.33871 267.676C3.52512 267.568 3.74137 267.506 3.97195 267.506H24.3354ZM2.75374 282.49C2.72259 282.38 2.70557 282.265 2.70557 282.145V269.125L10.5621 275.645L2.75374 282.49ZM16.3946 284.119L14.151 287.103L11.9593 284.132C11.6266 283.681 11.0931 283.411 10.5325 283.411H4.00807L11.7463 276.628L12.3766 277.151C12.8921 277.579 13.5238 277.793 14.1558 277.793C14.7876 277.793 15.4195 277.579 15.9349 277.151L16.563 276.63L24.2991 283.411H17.8117C17.2575 283.411 16.7277 283.676 16.3946 284.119Z" fill="white"/>
<path d="M14.3396 176.098C10.5533 176.098 7.47292 179.178 7.47292 182.964C7.47292 186.751 10.5533 189.831 14.3396 189.831C18.1259 189.831 21.2063 186.751 21.2063 182.964C21.2063 179.178 18.1259 176.098 14.3396 176.098ZM14.3396 188.305C11.3947 188.305 8.99885 185.909 8.99885 182.964C8.99885 180.019 11.3947 177.623 14.3396 177.623C17.2845 177.623 19.6804 180.019 19.6804 182.964C19.6804 185.909 17.2845 188.305 14.3396 188.305Z" fill="white"/>
<path d="M22.8831 194.317C21.0032 192.408 18.511 191.357 15.8656 191.357H12.8137C10.1683 191.357 7.67609 192.408 5.79614 194.317C3.9254 196.216 2.89514 198.724 2.89514 201.377C2.89514 201.799 3.23675 202.14 3.65811 202.14H25.0212C25.4425 202.14 25.7841 201.799 25.7841 201.377C25.7841 198.724 24.7539 196.216 22.8831 194.317ZM4.45464 200.614C4.83689 196.286 8.43992 192.883 12.8137 192.883H15.8656C20.2393 192.883 23.8424 196.286 24.2246 200.614H4.45464Z" fill="white"/>
<path d="M26.1993 103.748V96.2694L26.5098 96.1763C27.7031 95.8181 27.9536 95.2118 27.9536 94.7661C27.9536 94.3205 27.703 93.7142 26.5097 93.3562L16.2978 90.2926C15.6689 90.1039 14.8446 90 13.9769 90C13.1092 90 12.285 90.1039 11.6558 90.2926L1.44403 93.3562C0.250545 93.7142 0 94.3205 0 94.7662C0 95.2118 0.250491 95.8182 1.44398 96.1763L5.2632 97.3221V103.496C5.2632 104.262 5.7615 105.342 8.13543 106.134C9.70782 106.658 11.7823 106.946 13.9768 106.946C16.1712 106.946 18.2457 106.658 19.8181 106.134C22.1921 105.342 22.6904 104.262 22.6904 103.496V97.3222L24.5614 96.7608V103.748C23.5429 104.09 22.807 105.054 22.807 106.187V109.695C22.807 111.114 23.9613 112.269 25.3803 112.269C26.7992 112.269 27.9536 111.114 27.9536 109.695V106.187C27.9537 105.054 27.2178 104.09 26.1993 103.748ZM12.1265 91.8614C12.6001 91.7193 13.2745 91.6379 13.9769 91.6379C14.6792 91.6379 15.3536 91.7193 15.8272 91.8614L25.5098 94.7662L21.6321 95.9296C21.6299 95.9303 21.6277 95.9309 21.6255 95.9316L15.8273 97.6711C15.3537 97.8131 14.6793 97.8946 13.977 97.8946C13.2746 97.8946 12.6002 97.8131 12.1266 97.6711L6.32838 95.9316C6.32614 95.9309 6.32396 95.9303 6.32172 95.9296L2.44403 94.7662L12.1265 91.8614ZM21.0526 101.345C21.0526 103.601 20.7552 104.095 19.3003 104.58C17.8905 105.05 15.9999 105.308 13.9769 105.308C11.9538 105.308 10.0632 105.05 8.65345 104.58C7.19855 104.095 6.9011 103.601 6.9011 103.496V97.8134L11.6559 99.2399C12.2849 99.4286 13.1092 99.5325 13.9769 99.5325C14.8446 99.5325 15.6688 99.4286 16.2979 99.2399L21.0526 97.8134V101.345ZM26.3158 109.695C26.3158 110.211 25.8961 110.631 25.3804 110.631C24.8646 110.631 24.445 110.211 24.445 109.695V106.186C24.445 105.671 24.8645 105.251 25.3804 105.251C25.8962 105.251 26.3158 105.671 26.3158 106.186V109.695Z" fill="white"/>
</svg>
